---------- My.Name.Is.Khan.2010.DVDRiP.XviD.SWESUB-Zen_Bud.avi ----------

Format                           : AVI
File size                        : 1.96 GiB
Duration                         : 2h 41mn
Overall bit rate                 : 1 741 Kbps

Video

Format                           : MPEG-4 Visual
Codec ID/Hint                    : XviD
Duration                         : 2h 41mn
Bit rate                         : 1 600 Kbps
Width                            : 720 pixels
Height                           : 364 pixels
Display aspect ratio             : 2.35:1
Stream size                      : 1.81 GiB (92%)
Writing library                  : XviD 1.1.2 (UTC 2006-11-01)

Audio

Format                           : MPEG Audio
Codec ID/Hint                    : MP3
Duration                         : 2h 41mn
Bit rate                         : 128 Kbps
Channel(s)                       : 2 channels
Sampling rate                    : 48.0 KHz
Stream size                      : 148 MiB (7%)
Writing library                  : LAME3.98

Rizwan Khan, a Muslim from the Borivali section of Mumbai, suffers from Asperger's syndrome, a form of high-functioning autism that complicates socialization... 


=============== Sorry for the bad rip yesterday :( =====================